<svg viewBox="0 0 1200 600" xmlns="http://www.w3.org/2000/svg">
  <defs>
    <!-- Gradients -->
    <linearGradient id="encoderGradient" x1="0%" y1="0%" x2="100%" y2="0%">
      <stop offset="0%" style="stop-color:#6366F1;stop-opacity:1" />
      <stop offset="100%" style="stop-color:#8B5CF6;stop-opacity:1" />
    </linearGradient>
    
    <linearGradient id="decoderGradient" x1="0%" y1="0%" x2="100%" y2="0%">
      <stop offset="0%" style="stop-color:#10B981;stop-opacity:1" />
      <stop offset="100%" style="stop-color:#34D399;stop-opacity:1" />
    </linearGradient>
    
    <radialGradient id="latentGradient">
      <stop offset="0%" style="stop-color:#F0F9FF;stop-opacity:1" />
      <stop offset="100%" style="stop-color:#DBEAFE;stop-opacity:1" />
    </radialGradient>
    
    <!-- Arrow markers -->
    <marker id="arrowhead" markerWidth="10" markerHeight="7" refX="10" refY="3.5" orient="auto">
      <polygon points="0 0, 10 3.5, 0 7" fill="#6366F1" />
    </marker>
    
    <marker id="arrowhead2" markerWidth="10" markerHeight="7" refX="10" refY="3.5" orient="auto">
      <polygon points="0 0, 10 3.5, 0 7" fill="#10B981" />
    </marker>
    
    <!-- Patterns -->
    <pattern id="gridPattern" x="0" y="0" width="20" height="20" patternUnits="userSpaceOnUse">
      <rect x="0" y="0" width="20" height="20" fill="none" stroke="#E5E7EB" stroke-width="0.5"/>
    </pattern>
  </defs>
  
  <!-- Title -->
  <text x="600" y="40" font-size="28" font-weight="bold" text-anchor="middle" fill="#1F2937">
    How PLGL Works: From Many Dimensions to Few and Back
  </text>
  
  <!-- Input Space (High Dimensional) -->
  <g transform="translate(50, 100)">
    <rect x="0" y="0" width="200" height="400" fill="#FEF3F2" stroke="#DC2626" stroke-width="2" rx="10"/>
    <text x="100" y="-15" font-size="18" font-weight="600" text-anchor="middle" fill="#1F2937">Input Space</text>
    <text x="100" y="-35" font-size="14" text-anchor="middle" fill="#6B7280">(Millions of dimensions)</text>
    
    <!-- Grid of pixels/features -->
    <rect x="10" y="10" width="180" height="380" fill="url(#gridPattern)"/>
    
    <!-- Sample pixels -->
    <g opacity="0.8">
      <rect x="20" y="20" width="20" height="20" fill="#EF4444"/>
      <rect x="40" y="20" width="20" height="20" fill="#F59E0B"/>
      <rect x="60" y="20" width="20" height="20" fill="#10B981"/>
      <rect x="80" y="20" width="20" height="20" fill="#3B82F6"/>
      <rect x="100" y="20" width="20" height="20" fill="#8B5CF6"/>
      <rect x="120" y="20" width="20" height="20" fill="#EC4899"/>
      <rect x="140" y="20" width="20" height="20" fill="#6366F1"/>
      <rect x="160" y="20" width="20" height="20" fill="#84CC16"/>
      
      <!-- More rows -->
      <rect x="20" y="40" width="20" height="20" fill="#F97316"/>
      <rect x="40" y="40" width="20" height="20" fill="#0EA5E9"/>
      <rect x="60" y="40" width="20" height="20" fill="#A855F7"/>
      <!-- ... pattern continues ... -->
    </g>
    
    <text x="100" y="220" font-size="24" text-anchor="middle" fill="#6B7280">...</text>
    
    <text x="100" y="370" font-size="14" text-anchor="middle" fill="#6B7280">e.g., 512×512 image</text>
    <text x="100" y="385" font-size="14" text-anchor="middle" fill="#6B7280">= 262,144 pixels!</text>
  </g>
  
  <!-- Encoder -->
  <g transform="translate(300, 250)">
    <rect x="0" y="-50" width="150" height="100" fill="url(#encoderGradient)" rx="10"/>
    <text x="75" y="5" font-size="18" font-weight="600" text-anchor="middle" fill="white">Encoder</text>
    <text x="75" y="25" font-size="14" text-anchor="middle" fill="white">Compress</text>
    
    <!-- Arrow -->
    <path d="M -50 0 L 0 0" stroke="#6366F1" stroke-width="4" marker-end="url(#arrowhead)"/>
  </g>
  
  <!-- Latent Space -->
  <g transform="translate(500, 150)">
    <rect x="0" y="0" width="200" height="300" fill="url(#latentGradient)" stroke="#3B82F6" stroke-width="3" rx="15"/>
    <text x="100" y="-15" font-size="20" font-weight="700" text-anchor="middle" fill="#1F2937">Latent Space</text>
    <text x="100" y="-35" font-size="14" text-anchor="middle" fill="#6B7280">(e.g., 512 dimensions)</text>
    
    <!-- Latent vectors visualization -->
    <g transform="translate(100, 150)">
      <!-- Center point -->
      <circle cx="0" cy="0" r="15" fill="#6366F1" opacity="0.8"/>
      <text x="0" y="5" font-size="12" text-anchor="middle" fill="white" font-weight="bold">z</text>
      
      <!-- Surrounding points showing distribution -->
      <circle cx="-50" cy="-40" r="10" fill="#8B5CF6" opacity="0.6"/>
      <circle cx="50" cy="-30" r="10" fill="#EC4899" opacity="0.6"/>
      <circle cx="-40" cy="40" r="10" fill="#10B981" opacity="0.6"/>
      <circle cx="30" cy="50" r="10" fill="#F59E0B" opacity="0.6"/>
      
      <!-- Preference gradient visualization -->
      <defs>
        <radialGradient id="preferenceGradient">
          <stop offset="0%" style="stop-color:#10B981;stop-opacity:0.3" />
          <stop offset="50%" style="stop-color:#F59E0B;stop-opacity:0.2" />
          <stop offset="100%" style="stop-color:#EF4444;stop-opacity:0.1" />
        </radialGradient>
      </defs>
      <circle cx="0" cy="0" r="80" fill="url(#preferenceGradient)"/>
    </g>
    
    <text x="100" y="280" font-size="14" text-anchor="middle" fill="#6B7280">Each point = unique output</text>
  </g>
  
  <!-- Decoder -->
  <g transform="translate(750, 250)">
    <rect x="0" y="-50" width="150" height="100" fill="url(#decoderGradient)" rx="10"/>
    <text x="75" y="5" font-size="18" font-weight="600" text-anchor="middle" fill="white">Decoder</text>
    <text x="75" y="25" font-size="14" text-anchor="middle" fill="white">Expand</text>
    
    <!-- Arrow -->
    <path d="M -50 0 L 0 0" stroke="#10B981" stroke-width="4" marker-end="url(#arrowhead2)"/>
  </g>
  
  <!-- Output Space -->
  <g transform="translate(950, 100)">
    <rect x="0" y="0" width="200" height="400" fill="#F0FDF4" stroke="#10B981" stroke-width="2" rx="10"/>
    <text x="100" y="-15" font-size="18" font-weight="600" text-anchor="middle" fill="#1F2937">Output</text>
    <text x="100" y="-35" font-size="14" text-anchor="middle" fill="#6B7280">(Generated content)</text>
    
    <!-- Generated image representation -->
    <rect x="25" y="50" width="150" height="150" fill="#E0E7FF" stroke="#6366F1" stroke-width="2" rx="5"/>
    <text x="100" y="125" font-size="60" text-anchor="middle">🎨</text>
    
    <text x="100" y="250" font-size="16" text-anchor="middle" fill="#1F2937">Your Personalized</text>
    <text x="100" y="270" font-size="16" text-anchor="middle" fill="#1F2937">Result!</text>
  </g>
  
  <!-- Bottom explanation -->
  <g transform="translate(600, 530)">
    <rect x="-550" y="-20" width="1100" height="80" fill="#F0F9FF" stroke="#3B82F6" stroke-width="2" rx="10"/>
    <text x="0" y="0" font-size="16" text-anchor="middle" fill="#1F2937" font-weight="600">
      Key Insight: The latent space is like a "recipe" with just a few ingredients (dimensions)
    </text>
    <text x="0" y="25" font-size="14" text-anchor="middle" fill="#6B7280">
      Instead of controlling millions of pixels, we navigate through a much simpler space where similar things are close together!
    </text>
  </g>
</svg>